<svg width="64" height="64" viewBox="0 0 64 64" fill="none" xmlns="http://www.w3.org/2000/svg">
<rect width="64" height="64" rx="16" fill="white"/>
<g clip-path="url(#clip0_7007_2088)">
<path d="M20.8334 25H12V52H20.8334V25Z" fill="#E8EAEA"/>
<path d="M52.0001 25H43.1667V52H52.0001V25Z" fill="#E8EAEA"/>
<path d="M12 25.5004H52C52 24.5004 51.1666 23.667 50.1666 23.667H13.8334C12.8334 23.667 12 24.5004 12 25.5004Z" fill="#FFA679"/>
<path d="M43.1667 20.5H20.8333V52H43.1667V20.5Z" fill="#F2F2F2"/>
<path d="M44.4167 18.667H19.5834C19.0834 18.667 18.6667 19.0836 18.6667 19.5836C18.6667 20.0836 19.0834 20.5004 19.5834 20.5004H44.4167C44.9167 20.5004 45.3334 20.0837 45.3334 19.5837C45.3334 19.0837 44.9167 18.667 44.4167 18.667Z" fill="#FFA679"/>
<path d="M18.3334 27.5H14.5V31.75H18.3334V27.5Z" fill="#42A8C3"/>
<path d="M18.3334 33.417H14.5V37.667H18.3334V33.417Z" fill="#42A8C3"/>
<path d="M18.3334 39.333H14.5V43.583H18.3334V39.333Z" fill="#42A8C3"/>
<path d="M18.3334 45.25H14.5V49.5H18.3334V45.25Z" fill="#42A8C3"/>
<path d="M49.5 27.5H45.6667V31.75H49.5V27.5Z" fill="#42A8C3"/>
<path d="M49.5 33.417H45.6667V37.667H49.5V33.417Z" fill="#42A8C3"/>
<path d="M49.5 39.333H45.6667V43.583H49.5V39.333Z" fill="#42A8C3"/>
<path d="M49.5 45.25H45.6667V49.5H49.5V45.25Z" fill="#42A8C3"/>
<path d="M27.5 34.917H23.3333V39.167H27.5V34.917Z" fill="#8ECBDB"/>
<path d="M36.4166 41.583H27.5V51.9996H36.4166V41.583Z" fill="#056D8A"/>
<path d="M52 50.25H12V52H52V50.25Z" fill="#ACB3BA"/>
<path d="M27.5 23.083H23.3333V27.333H27.5V23.083Z" fill="#8ECBDB"/>
<path d="M27.5 29H23.3333V33.25H27.5V29Z" fill="#8ECBDB"/>
<path d="M34.0833 23.083H29.9166V27.333H34.0833V23.083Z" fill="#8ECBDB"/>
<path d="M34.0833 29H29.9166V33.25H34.0833V29Z" fill="#8ECBDB"/>
<path d="M34.0833 34.916H29.9166V39.166H34.0833V34.916Z" fill="#8ECBDB"/>
<path d="M40.6666 23.083H36.5V27.333H40.6666V23.083Z" fill="#8ECBDB"/>
<path d="M40.6666 29H36.5V33.25H40.6666V29Z" fill="#8ECBDB"/>
<path d="M40.6666 34.916H36.5V39.166H40.6666V34.916Z" fill="#8ECBDB"/>
</g>
<defs>
<clipPath id="clip0_7007_2088">
<rect width="40" height="40" fill="white" transform="translate(12 12)"/>
</clipPath>
</defs>
</svg>
