<svg width="61" height="60" viewBox="0 0 61 60" fill="none" xmlns="http://www.w3.org/2000/svg">
<g clip-path="url(#clip0_6969_35990)">
<path d="M28.2376 2.01202C35.7369 2.01202 43.2371 2.01202 50.7383 2.01202C51.5166 2.01202 52.3365 2.19541 52.2698 0.919999C52.2392 0.364263 52.7535 0.0336004 53.3261 0.0280431C54.4824 0.0280431 55.6553 -0.0608746 56.795 0.0836166C58.888 0.361484 60.2389 2.10649 60.2444 4.44336C60.2556 11.0622 60.2556 17.681 60.2444 24.2998C60.2444 31.9356 60.2444 39.5723 60.2444 47.21C60.2444 50.436 58.7157 51.9504 55.4719 51.9532C50.6577 51.9532 45.8407 51.9727 41.0181 51.9532C40.212 51.9532 39.5644 52.0783 39.1252 52.7868C39.0779 52.8646 38.9946 52.9202 38.9445 52.9952C36.5485 56.5491 33.0629 58.4748 29.0631 59.6446C28.5656 59.7919 28.0736 59.9975 27.615 59.6196C27.098 59.1889 27.2453 58.647 27.4093 58.0885C27.8985 56.4019 28.3432 54.7013 28.8408 53.0174C29.0437 52.3228 29.0854 51.9393 28.1208 51.9449C22.4727 51.9838 16.8246 51.9754 11.1654 51.9449C10.4399 51.9449 10.2009 52.1588 10.2176 52.8896C10.262 54.7402 10.2009 56.5936 10.2426 58.447C10.2676 59.589 9.7645 60.0447 8.65267 60.0003C7.63534 59.9614 6.61524 60.0003 5.59513 60.0003C2.37638 59.9447 0.25 57.8246 0.25 54.5485C0.25 43.4393 0.25 32.3311 0.25 21.2238C0.25 16.6862 0.25 12.1514 0.25 7.60828C0.263898 4.06546 2.30411 2.02313 5.87309 2.0148C13.3279 2.00368 20.7828 2.00276 28.2376 2.01202ZM28.3099 4.06268H6.21498C3.20469 4.06268 2.25964 5.02411 2.25964 8.08065V49.2051C2.25964 49.4357 2.25964 49.6691 2.25964 49.8998C2.21794 50.5833 2.41251 50.8779 3.12408 50.4972C4.05524 49.997 5.06979 49.9942 6.10379 49.9942C13.8866 49.9942 21.6694 49.9942 29.4523 49.9942C29.8219 49.9942 30.1944 49.9942 30.5641 49.9942C30.7521 49.9907 30.9338 49.9254 31.081 49.8084C31.2282 49.6914 31.3327 49.5292 31.3785 49.3468C31.498 48.98 31.1645 48.7688 30.9004 48.5827C30.4483 48.2513 29.9069 48.0635 29.3466 48.0436C28.56 48.0242 27.7734 48.0103 26.9868 48.0242C26.3002 48.0242 26.253 47.5879 26.2919 47.0961C26.3225 46.6793 26.0862 46.0457 26.8089 46.0235C28.6073 45.9707 30.5029 45.6845 32.015 46.946C32.8489 47.6379 33.2158 47.4768 33.8662 46.746C38.2052 41.8666 42.6108 37.0456 46.9608 32.1774C48.1811 30.8102 49.5986 30.2017 51.4082 30.5852C51.6667 30.638 52.0808 30.977 52.1531 30.4129C52.2253 29.8488 51.7445 30.0322 51.4693 30.0294C49.8933 30.0128 48.3173 30.0128 46.744 30.0294C45.9824 30.0294 45.2625 29.9072 45.3014 28.9652C45.3376 28.0983 46.0575 28.0482 46.744 28.051C48.2255 28.051 49.7098 28.0149 51.1913 28.051C51.9669 28.0788 52.2504 27.8454 52.2254 27.0424C52.1735 25.3751 52.1735 23.7079 52.2254 22.0407C52.2531 21.2071 51.9474 21.021 51.1774 21.0432C49.6515 21.0904 48.1199 21.0599 46.5939 21.0432C45.8657 21.0432 45.2597 20.7987 45.2931 19.9567C45.3264 19.1926 45.9268 19.012 46.5856 19.0092C48.0699 19.0092 49.5514 18.9647 51.0329 19.0092C51.9001 19.0398 52.2698 18.823 52.2309 17.8644C52.1586 15.9693 52.1559 14.0659 52.2309 12.1709C52.2698 11.2094 51.9029 11.0066 51.0357 11.0399C49.5097 11.0955 47.9782 11.065 46.4522 11.0399C45.7628 11.0399 45.2597 10.7121 45.2931 9.95626C45.3264 9.26437 45.849 9.05041 46.4605 9.03652C47.1554 9.02262 47.8503 9.05875 48.5452 9.01985C49.7348 8.95594 51.3248 9.54224 52.003 8.74198C52.5867 8.06676 52.1086 6.51904 52.2281 5.38256C52.3477 4.24608 51.8696 4.01823 50.8383 4.02378C43.3335 4.07936 35.8286 4.06268 28.3237 4.06268H28.3099ZM58.2431 23.8469C58.2431 17.5485 58.2431 11.2558 58.2431 4.96853C58.2648 4.46241 58.2171 3.9557 58.1014 3.46249C57.7567 2.28155 56.4642 1.73137 54.866 2.03147C53.6652 2.25654 54.235 3.2263 54.2322 3.82372C54.197 16.2666 54.1905 28.7086 54.2127 41.1497C54.2127 42.0194 53.8736 43.0475 54.3879 43.7144C54.8521 44.3146 55.8722 43.8395 56.631 43.9923C56.7254 43.9967 56.8189 44.0135 56.9089 44.0423C58.2237 44.6453 58.2765 43.9284 58.2709 42.8725C58.2237 36.526 58.2431 30.1878 58.2431 23.8469ZM52.2087 38.5016C50.2074 40.28 42.5052 48.9606 42.0215 49.9803C46.8218 49.9803 51.5721 50.0165 56.3224 49.9553C57.4843 49.9414 58.2153 49.1217 58.1987 47.9464C58.182 46.771 57.4398 46.0846 56.253 46.0013C55.4191 45.9485 54.5852 45.9513 53.7513 45.979C52.6395 46.018 52.167 45.5122 52.192 44.3896C52.2281 42.514 52.2087 40.619 52.2087 38.5016ZM8.29132 54.9986C8.29132 51.5948 8.29132 51.5948 5.05589 51.9727C4.96264 51.978 4.86981 51.9891 4.77793 52.006C3.5855 52.3311 2.70715 53.0008 2.38194 54.2456C2.23125 54.7602 2.23268 55.3073 2.38607 55.821C2.53945 56.3348 2.83824 56.7932 3.24639 57.141C4.60004 58.3997 6.35952 58.2025 7.84659 57.8523C8.88059 57.6106 8.0634 56.1546 8.28576 55.2737C8.29783 55.1825 8.29876 55.0901 8.28854 54.9986H8.29132ZM32.1095 52.8118C32.5404 52.7785 32.7266 52.4228 32.9656 52.1588C36.6829 48.0519 40.3955 43.9404 44.1034 39.8243C44.2563 39.652 44.4036 39.4742 44.5537 39.2991C44.606 39.253 44.6466 39.1953 44.6723 39.1305C44.698 39.0657 44.708 38.9958 44.7015 38.9265C44.695 38.8571 44.6721 38.7903 44.6349 38.7314C44.5976 38.6725 44.5469 38.6233 44.487 38.5878C44.4462 38.5494 44.3979 38.5197 44.3452 38.5007C44.2924 38.4816 44.2364 38.4735 44.1804 38.4769C44.1244 38.4803 44.0697 38.4951 44.0197 38.5203C43.9697 38.5456 43.9253 38.5809 43.8894 38.6239C43.692 38.8184 43.5086 39.024 43.3335 39.2296L32.368 51.3502C32.1406 51.5789 31.935 51.8282 31.7537 52.0949C31.4869 52.5173 31.8093 52.6618 32.1068 52.8118H32.1095ZM46.9886 41.0247C46.8691 40.8579 46.8024 40.6607 46.6662 40.5912C46.1297 40.3133 45.9324 40.8218 45.6794 41.0997C41.9122 45.2455 38.1551 49.3996 34.4082 53.5621C34.1442 53.8566 33.5021 54.1817 34.0942 54.6735C34.6862 55.1654 34.8975 54.4512 35.156 54.1706C38.8973 50.0637 42.6247 45.9448 46.3382 41.8138C46.5494 41.5776 46.7412 41.322 46.9858 41.0247H46.9886ZM52.2976 34.3558C52.2861 33.9403 52.1463 33.5385 51.8974 33.2055C51.1858 32.2885 49.9044 32.2135 48.9705 32.9887C47.728 34.0224 49.001 34.3781 49.4736 34.956C49.6445 35.1755 49.8524 35.3636 50.0879 35.5118C50.5159 35.7591 50.7494 36.5732 51.4137 36.1397C51.7043 35.9465 51.9387 35.6801 52.0934 35.3674C52.2481 35.0547 52.3176 34.7067 52.2948 34.3586L52.2976 34.3558ZM49.6181 38.1598C49.6487 37.7264 49.3735 37.5874 49.1817 37.4068C48.6453 36.9011 48.0699 36.4371 47.5501 35.9147C47.0303 35.3923 46.6801 35.4756 46.1964 35.998C45.6767 36.5538 45.6183 36.9595 46.2548 37.4485C46.8107 37.8709 47.2805 38.3738 47.8086 38.8212C48.0699 39.0407 48.3339 39.4464 48.7398 39.099C49.0501 38.8047 49.3425 38.492 49.6153 38.1626L49.6181 38.1598ZM29.9081 57.0187C30.7905 56.8366 31.6361 56.5079 32.4097 56.0462C31.9152 55.4064 31.3166 54.8541 30.6391 54.4123C30.2434 55.2311 29.9958 56.1136 29.9081 57.0187Z" fill="#1B7CF2"/>
<path d="M19.5571 16.047C16.7302 11.6872 16.6302 9.22252 19.0762 7.18297C20.0239 6.42241 21.2127 6.02639 22.4274 6.06666C23.642 6.10693 24.802 6.58083 25.6972 7.40248C27.9208 9.49761 27.7012 12.3263 24.88 16.0414C26.6339 15.983 28.2155 16.3359 29.7554 15.708C31.3647 15.0438 32.1819 13.7629 32.2097 12.0095C32.2375 10.3423 32.2598 8.67512 32.2097 7.00791C32.1791 6.13541 32.5989 6.0576 33.2993 6.04093C34.047 6.02148 34.261 6.3188 34.2416 7.01347C34.2055 8.49451 34.2416 9.97554 34.2416 11.4594C34.2249 15.5968 31.8095 18.0337 27.6929 18.042C21.9531 18.042 16.2105 18.0282 10.4595 18.042C7.91619 18.042 6.20119 19.8426 6.33183 22.2517C6.37051 23.0678 6.66201 23.8517 7.16597 24.4949C7.66993 25.1381 8.36144 25.6088 9.14477 25.8418C10.8514 26.3475 11.21 26.1197 11.2878 24.3524C11.3267 23.4132 11.7409 23.027 12.6637 23.0353C15.0236 23.0548 17.389 23.0715 19.7461 23.0353C20.8996 23.0159 21.4138 23.5355 21.2804 24.6247C21.1359 25.8057 21.6251 26.1197 22.7647 26.053C24.5186 25.9641 26.2809 26.0141 28.0459 26.0363C31.6427 26.078 34.211 28.5538 34.2277 31.9632C34.2444 35.4143 31.6204 37.9957 27.9903 38.0152C22.1087 38.0457 16.2271 38.0152 10.3483 38.0374C7.99124 38.0374 6.35407 39.6879 6.32905 41.9276C6.30404 44.1672 7.89674 45.8177 10.2205 45.9594C10.4976 45.9888 10.7772 45.9888 11.0543 45.9594C12.2468 45.7705 12.3329 46.479 12.2468 47.3682C12.2546 47.5256 12.201 47.6798 12.0973 47.7985C11.9936 47.9172 11.8479 47.9911 11.6909 48.0045C9.42273 48.5158 6.48471 47.2376 5.17275 45.1369C4.53062 44.0819 4.22739 42.8554 4.30393 41.6228C4.38047 40.3902 4.83308 39.2106 5.6008 38.243C6.89887 36.6731 8.57495 35.9895 10.604 35.9979C16.1632 36.0257 21.7224 35.9979 27.2815 35.9979C27.839 36.0138 28.3969 35.9831 28.9493 35.9062C29.9175 35.7445 30.7899 35.2259 31.3945 34.4528C31.9991 33.6797 32.292 32.7081 32.2153 31.7298C32.176 30.767 31.7744 29.8546 31.0911 29.175C30.4077 28.4955 29.4928 28.0989 28.5296 28.0647C26.4004 27.9814 24.2685 28.0647 22.1365 28.0258C21.4416 28.0258 21.2359 28.3037 21.3026 28.9317C21.3304 29.2985 21.2776 29.6736 21.3026 30.0432C21.4083 31.3213 21.0441 32.1577 19.5487 31.9743C19.3186 31.9394 19.0834 31.9808 18.8791 32.0922C18.6748 32.2036 18.5126 32.3789 18.4174 32.5912C18.2562 32.8691 18.0589 33.1275 17.8754 33.397C16.3717 35.5811 16.0854 35.595 14.6567 33.3748C14.1008 32.5412 13.6532 31.7604 12.4163 31.9438C11.6103 32.0633 11.3212 31.4575 11.3045 30.6989C11.2795 29.8653 11.6464 28.8289 11.1238 28.2898C10.693 27.8424 9.65899 28.0119 8.90017 27.8313C7.46076 27.5052 6.19512 26.6534 5.35133 25.4428C4.50754 24.2323 4.14646 22.7504 4.33888 21.2875C4.66131 18.3394 7.11012 16.1164 10.2093 16.0581C11.7381 16.0219 13.2669 16.0581 14.7957 16.0581L19.5571 16.047ZM16.2355 25.0082C13.2919 25.0082 13.2808 25.0082 13.2975 27.9314C13.2975 28.9345 12.875 30.2488 14.6873 30.1543C15.7546 32.0244 16.8108 31.9966 17.856 30.1348C19.5849 30.2849 19.2458 29.0456 19.2458 28.0453C19.2513 25.0082 19.2485 25.0082 16.2355 25.0082ZM25.2385 11.0842C25.2438 10.6856 25.1691 10.2899 25.0188 9.92053C24.8685 9.5512 24.6457 9.21571 24.3636 8.93389C24.0814 8.65207 23.7457 8.42963 23.3761 8.2797C23.0065 8.12977 22.6106 8.05539 22.2118 8.06096C21.813 8.06653 21.4194 8.15194 21.0541 8.31213C20.6889 8.47232 20.3595 8.70406 20.0853 8.99365C19.8111 9.28324 19.5978 9.62482 19.4579 9.9982C19.318 10.3716 19.2544 10.7692 19.2708 11.1676C19.2986 13.1321 20.8329 14.0963 21.9892 15.3134C22.1254 15.4551 22.2838 15.4412 22.4812 15.3578C23.5986 14.8855 25.2413 12.368 25.2385 11.0842Z" fill="#1B7CF2"/>
<path d="M43.2695 10.612C43.2695 14.3215 43.5475 14.0381 39.8034 14.0326C35.8425 14.0326 36.2678 14.366 36.2594 10.4203C36.2594 6.72186 35.9314 6.98861 39.7061 6.98861C43.6114 6.99973 43.2751 6.71075 43.2695 10.612ZM39.6005 11.9486C40.5594 12.1014 41.3794 12.1208 41.2682 10.6676C41.196 9.65892 41.2682 8.85589 39.8451 9.00038C38.9584 9.09763 38.0634 8.89201 38.2496 10.2952C38.3719 11.1816 37.9605 12.3348 39.6005 11.9486Z" fill="#1B7CF2"/>
<path d="M39.7507 31.9775C35.9316 31.9553 36.2623 32.4138 36.2568 28.4931C36.2512 24.5723 35.9621 25.0086 39.7563 25.0086C43.492 25.0086 43.278 24.6168 43.2724 28.5042C43.2669 32.3915 43.5337 31.9553 39.7507 31.9775ZM41.1961 28.5514C41.4741 27.4399 41.1711 26.8842 39.8424 26.9426C38.7501 26.9787 38.1108 27.0537 38.2386 28.4125C38.3331 29.4045 38.2053 30.1992 39.6618 30.0408C40.6763 29.9296 41.5797 30.0352 41.1961 28.5514Z" fill="#1B7CF2"/>
<path d="M43.2696 19.5372C43.2863 23.3884 43.5142 23.0438 39.7507 23.0411C35.9871 23.0383 36.254 23.4079 36.2567 19.5316C36.2595 15.6553 35.9176 16.0555 39.759 16.0527C43.6004 16.0499 43.2752 15.6526 43.2696 19.5372ZM38.3108 19.4955C38.0496 20.6848 38.4609 21.1016 39.7257 21.0877C40.9209 21.0877 41.3017 20.782 41.2906 19.5483C41.2767 18.3729 41.0126 17.9616 39.7701 17.9978C38.6083 18.0311 37.9801 18.2062 38.3108 19.4955Z" fill="#1B7CF2"/>
<path d="M15.1818 46.0037C16.0352 45.8675 16.3298 46.1704 16.3215 46.9762C16.3215 47.7348 16.1074 48.0377 15.3014 48.0321C14.4953 48.0266 14.2229 47.8098 14.2479 47.0123C14.2701 46.2927 14.373 45.7814 15.1818 46.0037Z" fill="#1B7CF2"/>
<path d="M20.2325 47.0518C20.4048 47.9076 19.9267 48.0021 19.2124 48.0327C18.334 48.0688 18.2979 47.6214 18.2618 46.9406C18.2173 46.107 18.6009 45.9764 19.3208 45.9542C20.1825 45.9292 20.352 46.3349 20.2325 47.0518Z" fill="#1B7CF2"/>
<path d="M23.2511 45.9906C24.085 45.8489 24.249 46.2824 24.2629 47.0159C24.2629 47.8162 23.9599 48.0218 23.2038 48.0329C22.3866 48.0329 22.2143 47.7106 22.2032 46.9687C22.1921 46.1684 22.4867 45.8683 23.2511 45.9906Z" fill="#1B7CF2"/>
<path d="M22.2086 10.0283C22.7979 10.0672 23.1954 10.3701 23.2454 10.9453C23.2633 11.0724 23.2532 11.202 23.2157 11.3248C23.1783 11.4476 23.1144 11.5608 23.0286 11.6563C22.9428 11.7519 22.8372 11.8276 22.719 11.878C22.6009 11.9285 22.4732 11.9525 22.3448 11.9484C22.2181 11.9722 22.0877 11.9673 21.9632 11.9339C21.8386 11.9005 21.7232 11.8395 21.6255 11.7554C21.5278 11.6713 21.4503 11.5663 21.3987 11.4482C21.3471 11.3301 21.3228 11.2019 21.3275 11.0731C21.283 10.484 21.636 10.1589 22.2086 10.0283Z" fill="#1B7CF2"/>
</g>
<defs>
<clipPath id="clip0_6969_35990">
<rect width="60" height="60" fill="white" transform="translate(0.25)"/>
</clipPath>
</defs>
</svg>
