<svg width="61" height="60" viewBox="0 0 61 60" fill="none" xmlns="http://www.w3.org/2000/svg">
<g clip-path="url(#clip0_6969_36004)">
<path d="M40.0772 58.0559C40.9146 56.8377 41.6842 55.7994 42.3624 54.7037C42.5902 54.2822 42.937 53.9369 43.3596 53.711C43.7822 53.4851 44.2619 53.3885 44.739 53.4333C45.6938 53.4724 46.6538 53.3603 47.6085 53.4151C48.7746 53.4803 48.7068 53.042 48.2242 52.2464C47.6842 51.3568 47.2224 50.4203 46.7242 49.502C46.4164 48.9385 46.3511 48.3829 47.0033 48.0542C47.6059 47.749 47.9868 48.1611 48.2555 48.6516C48.9833 49.9872 49.7372 51.3098 50.4077 52.6742C51.0077 53.8924 50.3738 54.9333 48.9833 55.0481C47.9029 55.1735 46.8142 55.2119 45.7277 55.1629C44.5198 55.0664 43.7894 55.562 43.2259 56.5611C42.8007 57.315 42.2764 58.0168 41.7781 58.7264C40.5651 60.4507 39.3364 60.3985 38.3294 58.5568C36.4329 55.0872 34.5338 51.6177 32.6894 48.122C32.2329 47.2533 31.839 46.7055 30.7538 47.2455C30.4348 47.3961 30.086 47.4729 29.7333 47.4702C29.3806 47.4675 29.033 47.3853 28.7164 47.2298C27.6938 46.729 27.3129 47.2064 26.8694 48.0516C25.0433 51.5133 23.1651 54.9411 21.2998 58.3768C20.1729 60.4637 18.7564 60.6307 17.6972 58.5464C16.2885 55.7759 14.2746 54.8237 11.2642 55.035C8.88506 55.202 8.33984 54.0568 9.49289 51.9333C11.232 48.7246 12.9711 45.5159 14.7103 42.3072C15.5059 40.8359 15.279 39.7846 13.8625 38.7985C13.1315 38.328 12.3658 37.9137 11.572 37.5594C9.52158 36.5603 8.37115 34.9716 8.66593 32.6629C8.96854 30.2733 8.37375 28.2464 6.93636 26.3316C5.64767 24.6177 5.66332 22.7159 6.95723 21.0046C7.65718 20.1192 8.16962 19.1005 8.46337 18.0107C8.75713 16.9209 8.82604 15.7828 8.66593 14.6655C8.38941 12.422 9.44854 10.7707 11.5094 9.88635C13.5233 9.02288 14.9972 7.72896 15.8372 5.64983C16.7894 3.30201 18.6598 2.27418 21.1538 2.62114C22.1194 2.77027 23.1055 2.71596 24.0489 2.4617C24.9923 2.20743 25.8721 1.75881 26.632 1.14462C28.6798 -0.420601 30.832 -0.420601 32.8746 1.14462C33.6556 1.76684 34.5578 2.2193 35.5235 2.47309C36.4893 2.72688 37.4973 2.77641 38.4833 2.61853C40.8651 2.30549 42.6833 3.28375 43.6068 5.53766C44.4677 7.64027 45.9259 9.01244 47.9972 9.88896C50.0685 10.7655 51.1277 12.4246 50.8433 14.6655C50.6849 15.7822 50.7544 16.9193 51.0476 18.0084C51.3408 19.0975 51.8517 20.1158 52.5494 21.002C53.8772 22.7707 53.8277 24.6907 52.5077 26.4437C51.1251 28.2698 50.5433 30.2316 50.8433 32.5324C51.1616 34.9481 49.9824 36.5916 47.8251 37.6272C46.6251 38.2037 45.3442 38.6707 44.6033 39.9464C44.2146 40.6168 44.1077 41.1646 44.5407 41.8559C45.0938 42.7377 45.5503 43.682 46.0407 44.6003C46.3407 45.1611 46.4007 45.7324 45.7407 46.0455C45.1433 46.3298 44.7703 45.9203 44.4964 45.4246C44.4129 45.2733 44.3346 45.1168 44.2355 44.9655C43.8885 44.3655 43.6746 43.5098 43.1529 43.2359C42.5529 42.9229 42.2372 43.922 41.692 44.2168C40.3877 44.9264 38.9998 44.822 37.6146 44.7385C36.3807 44.6655 35.1807 44.6759 34.1033 45.4142C33.7146 45.675 33.4042 45.8837 33.7094 46.4368C35.8172 50.2403 37.8911 54.0516 40.0772 58.0559ZM21.9103 4.42375C19.3016 3.76636 17.8329 4.96896 16.9538 7.29331C16.2338 9.20549 14.7442 10.3768 12.9025 11.1124C10.9929 11.8768 10.1111 13.1811 10.432 15.2864C10.6151 16.3576 10.5619 17.4559 10.2762 18.5044C9.99056 19.553 9.47926 20.5265 8.7781 21.3568C7.52854 22.8855 7.5181 24.4559 8.76506 25.982C9.4712 26.8134 9.987 27.7892 10.2763 28.841C10.5656 29.8928 10.6214 30.9951 10.4398 32.0707C10.1294 34.1577 10.9355 35.4803 12.892 36.2446C13.8795 36.5969 14.7766 37.1638 15.5186 37.9045C16.2607 38.6452 16.8292 39.5412 17.1833 40.5281C17.9111 42.4872 19.2703 43.3116 21.3572 42.9959C22.4102 42.8101 23.491 42.857 24.5239 43.1332C25.5568 43.4095 26.5168 43.9084 27.3364 44.5951C28.9433 45.8994 30.5764 45.9203 32.1911 44.6081C33.0088 43.9195 33.9673 43.4181 34.9993 43.1391C36.0313 42.8602 37.1118 42.8104 38.1651 42.9933C40.2259 43.309 41.6059 42.5159 42.339 40.549C42.6917 39.5614 43.2588 38.6643 43.9994 37.9219C44.74 37.1795 45.6358 36.6102 46.6224 36.2551C48.5659 35.5064 49.4059 34.189 49.0929 32.102C48.9095 31.0263 48.9634 29.9236 49.2509 28.8709C49.5384 27.8183 50.0525 26.8412 50.7572 26.0081C51.999 24.4898 52.0198 22.9194 50.7572 21.3855C50.0499 20.5542 49.5335 19.578 49.2441 18.5256C48.9547 17.4732 48.8996 16.3702 49.0824 15.2942C49.4007 13.2072 48.5607 11.8637 46.6329 11.1203C45.6294 10.7501 44.7193 10.1644 43.9666 9.40454C43.2139 8.64464 42.637 7.72897 42.2764 6.72201C41.5772 4.89592 40.2885 4.0794 38.3111 4.37418C36.0025 4.69505 33.8946 4.19157 32.0685 2.70462C30.472 1.40027 28.9381 1.51766 27.3416 2.7594C25.7451 4.00114 23.9816 4.73418 21.9103 4.42375ZM19.4451 58.0481C21.6181 54.0698 23.6685 50.2977 25.7451 46.5411C26.0555 45.975 25.8598 45.722 25.3903 45.4037C24.0859 44.522 22.6538 44.7046 21.2164 44.7777C19.6172 44.8559 18.0572 44.7777 16.9277 43.4237C16.4607 42.8629 16.2442 43.1629 16.0042 43.5959C14.3659 46.6098 12.7294 49.6203 11.0946 52.6272C10.7868 53.1933 10.9251 53.4098 11.559 53.4098C12.6442 53.4098 13.732 53.4829 14.8146 53.4437C15.8972 53.4046 16.612 53.8403 17.1624 54.7481C17.8355 55.7916 18.5842 56.8011 19.4451 58.0481Z" fill="#1B7CF2"/>
<path d="M29.9217 5.50101C34.6956 5.56819 39.2521 7.50854 42.6088 10.9038C45.9655 14.2991 47.8537 18.8774 47.8664 23.6518C47.879 28.4263 46.0152 33.0145 42.6765 36.4275C39.3378 39.8405 34.7917 41.805 30.0182 41.8975C16.7138 42.1297 7.58339 28.0036 13.2704 15.9932C13.419 15.6775 13.5756 15.3671 13.7504 15.0671C14.0947 14.4723 14.4156 13.6532 15.2947 14.1619C16.093 14.6236 15.5921 15.2888 15.2947 15.8628C12.999 20.3654 12.6547 24.9932 14.4912 29.7228C17.0999 36.4793 24.1434 40.7758 31.3877 40.048C38.6321 39.3201 44.6921 33.7088 45.9208 26.5897C47.1547 19.4288 43.7973 12.5993 37.3121 9.11145C31.3486 5.88971 23.6712 6.94884 18.5295 11.6941C18.3145 11.9093 18.0853 12.1097 17.8434 12.2941C17.6757 12.4171 17.4685 12.4739 17.2615 12.4538C17.0545 12.4336 16.8622 12.3378 16.7214 12.1847C16.5806 12.0317 16.5012 11.832 16.4983 11.6241C16.4955 11.4161 16.5694 11.2144 16.706 11.0575C17.2115 10.5199 17.7527 10.017 18.326 9.55232C21.7173 6.80275 25.5912 5.49319 29.9217 5.50101Z" fill="#1B7CF2"/>
<path d="M21.1276 33.4065C21.4042 31.7239 21.6676 29.9187 22.0068 28.1239C22.0837 27.8334 22.0754 27.527 21.9829 27.2411C21.8904 26.9552 21.7176 26.702 21.485 26.5117C20.3033 25.4213 19.1763 24.2735 18.0129 23.1648C17.2616 22.45 16.8494 21.6413 17.2094 20.5978C17.5563 19.6039 18.3572 19.2622 19.3276 19.1343C20.8329 18.9361 22.3302 18.6491 23.8407 18.49C24.712 18.3987 25.2546 18.0648 25.6198 17.2404C26.2694 15.7717 27.0259 14.3526 27.7329 12.9074C28.1502 12.0569 28.8102 11.5117 29.765 11.5117C30.7198 11.5117 31.3798 12.0569 31.7972 12.91C32.5042 14.3526 33.2633 15.7795 33.9102 17.243C34.2755 18.0726 34.8259 18.3908 35.692 18.4874C37.2859 18.6648 38.8694 18.9543 40.4607 19.1813C41.3529 19.3065 42.0259 19.7317 42.3181 20.6004C42.6389 21.5213 42.3729 22.3143 41.6946 22.9769C40.4842 24.1639 39.2842 25.3613 38.0424 26.5169C37.8099 26.7072 37.637 26.9604 37.5445 27.2463C37.452 27.5322 37.4437 27.8387 37.5207 28.1291C37.8233 29.663 38.0424 31.2152 38.3033 32.7543C38.4885 33.7978 38.465 34.7708 37.5207 35.4517C36.6181 36.0882 35.7155 35.8691 34.8207 35.3865C33.4042 34.6248 31.9668 33.9048 30.5607 33.1248C30.3267 32.9763 30.0552 32.8974 29.7781 32.8974C29.5009 32.8974 29.2295 32.9763 28.9955 33.1248C27.4746 33.9595 25.9485 34.7969 24.3781 35.543C22.6433 36.3595 21.0807 35.3448 21.1276 33.4065ZM22.9537 33.1274C22.7842 34.1395 23.2146 34.1708 23.9659 33.7717C25.4216 32.9891 26.9033 32.2639 28.3459 31.4604C28.7724 31.1969 29.2637 31.0574 29.765 31.0574C30.2663 31.0574 30.7577 31.1969 31.1842 31.4604C32.512 32.1987 33.8659 32.89 35.2198 33.5839C35.5929 33.7743 36.0024 34.2152 36.3989 33.9387C36.8502 33.6204 36.5476 33.0439 36.4798 32.5978C36.2529 31.0952 35.9998 29.5952 35.6972 28.103C35.5842 27.6372 35.6026 27.1492 35.7505 26.6932C35.8983 26.2373 36.1697 25.8313 36.5346 25.5204C37.7711 24.3622 38.9685 23.1726 40.1868 21.97C40.4007 21.7613 40.7085 21.5422 40.5807 21.2082C40.4529 20.8743 40.1085 20.8795 39.7981 20.8352C38.1676 20.5926 36.5398 20.2926 34.9016 20.1126C33.7329 19.9848 33.0102 19.4291 32.5302 18.3726C31.8468 16.87 31.0772 15.4091 30.3389 13.9378C30.2085 13.6769 30.1276 13.3248 29.7468 13.33C29.3659 13.3352 29.2929 13.6848 29.1624 13.9482C28.3798 15.5135 27.6102 17.0604 26.8563 18.6256C26.6838 19.026 26.4068 19.3726 26.0543 19.6292C25.7018 19.8857 25.2869 20.0428 24.8529 20.0839C23.1807 20.3135 21.5085 20.5743 19.8337 20.8352C19.492 20.8848 19.0668 20.8352 18.9389 21.2291C18.8111 21.623 19.1998 21.8422 19.432 22.0795C20.5146 23.1491 21.5711 24.2474 22.7059 25.2569C23.6816 26.123 24.0572 27.083 23.7781 28.3874C23.4389 29.9474 23.2224 31.5439 22.9537 33.1274Z" fill="#1B7CF2"/>
</g>
<defs>
<clipPath id="clip0_6969_36004">
<rect width="60" height="60" fill="white" transform="translate(0.25)"/>
</clipPath>
</defs>
</svg>
