<svg width="61" height="60" viewBox="0 0 61 60" fill="none" xmlns="http://www.w3.org/2000/svg">
<g clip-path="url(#clip0_6969_36012)">
<path d="M18.2091 32.1498C18.9163 30.5217 18.7675 29.7729 17.5279 28.6354C15.9866 27.2688 14.8789 25.4812 14.3414 23.4929C14.1826 22.7408 13.7419 22.078 13.1096 21.6405C10.8026 19.9968 10.2885 17.1503 11.7708 14.7109C12.0083 14.3169 12.1623 13.9908 12.0318 13.5133C10.8183 9.1927 13.261 4.16766 18.4831 2.10651C21.4983 0.937974 24.7453 0.491216 27.9642 0.801982C29.8876 0.968961 31.4796 1.7282 32.2338 3.71108C32.5865 4.55796 33.2047 5.26751 33.9953 5.73309C37.1114 7.77077 37.6855 9.47709 36.5607 13.0384C36.4328 13.4429 36.2841 13.7638 36.6207 14.2282C38.4475 16.7485 37.9126 20.0333 35.3576 21.8675C34.9332 22.1603 34.6291 22.5968 34.5016 23.0964C33.8589 25.418 32.5321 27.4926 30.694 29.0502C29.9111 29.726 29.8537 32.0585 30.5505 32.789C30.9028 33.1569 31.1403 32.8333 31.2864 32.6324C32.7401 30.647 34.7574 30.9131 36.7356 31.3279C42.216 32.5124 46.1045 35.612 47.7773 41.0727C49.4632 46.5805 49.6042 52.2917 49.6485 57.9898C49.6485 59.1639 48.9361 59.2944 48.0044 59.2944C39.2635 59.2805 30.5218 59.2805 21.7792 59.2944C15.2131 59.2944 8.64611 59.2944 2.07828 59.2944C0.361073 59.2944 0.233196 59.1691 0.251464 57.4159C0.295829 52.5343 0.556803 47.6763 1.60331 42.8939C3.11956 35.9538 8.38862 31.414 15.1739 31.0905C16.4997 31.0279 16.4997 31.0279 18.2091 32.1498ZM25.3702 57.3793C29.5901 57.3793 33.8074 57.3454 38.0248 57.4028C39.0687 57.4028 39.3583 57.1132 39.3296 56.0983C39.2618 53.317 39.3061 50.5332 39.3088 47.7493C39.3088 47.2275 39.2696 46.6874 39.8307 46.3769C40.5667 45.9725 41.206 46.5048 41.2139 47.6136C41.2374 50.5253 41.2452 53.4397 41.2139 56.3514C41.2139 57.1341 41.4279 57.4315 42.2447 57.395C43.7636 57.3376 45.2877 57.3637 46.8091 57.395C47.3807 57.395 47.7147 57.2671 47.6938 56.6123C47.5216 51.355 47.4459 46.0795 45.6974 41.031C44.3612 37.167 41.5218 34.8475 37.722 33.5691C36.973 33.3082 36.5555 33.4595 36.1562 34.1718C34.5695 36.9191 32.9253 39.6351 31.2734 42.3433C30.9088 42.9244 30.7203 43.5986 30.7306 44.2845C30.7567 47.5458 30.7488 50.8071 30.7306 54.0658C30.7306 55.6026 30.5166 55.8165 29.0107 55.8217C26.1853 55.8217 23.3581 55.8217 20.5291 55.8217C18.8667 55.8217 18.7153 55.6782 18.7023 54.058C18.7023 50.9271 18.6788 47.7963 18.7023 44.6654C18.7328 43.7998 18.5038 42.9448 18.0446 42.2103C16.4449 39.6221 14.8529 37.0261 13.3628 34.3831C12.8408 33.4621 12.3189 33.436 11.4759 33.7674C7.37082 35.4137 4.6854 38.3097 3.65456 42.6695C2.57935 47.1805 2.33664 51.7751 2.16179 56.3853C2.13047 57.228 2.47235 57.4106 3.22917 57.3898C4.92289 57.348 6.62183 57.3376 8.31555 57.3898C9.15588 57.4185 9.44295 57.1706 9.42729 56.2992C9.37771 53.4736 9.41163 50.648 9.40641 47.8198C9.40641 47.0866 9.45339 46.2935 10.3746 46.2674C11.2959 46.2413 11.3663 47.0501 11.3689 47.7806C11.3689 50.5201 11.4159 53.2596 11.3481 55.9965C11.322 57.0558 11.609 57.4159 12.7156 57.4002C16.9329 57.3298 21.1528 57.3793 25.3702 57.3793ZM24.6029 29.4129C24.736 29.4129 25.0413 29.3946 25.3415 29.345C29.5927 28.6615 31.7014 25.7837 32.8262 21.951C33.048 21.1917 33.3481 20.6986 34.0997 20.3099C36.1405 19.2506 36.3232 16.3963 34.4886 15.1361C34.0632 14.8439 33.8779 14.416 33.6665 13.9934C32.902 12.4793 31.9248 11.0823 30.7645 9.84496C30.4774 9.5397 30.1512 8.98137 29.5953 9.51622C28.3948 10.6799 26.8995 10.7686 25.3467 10.7477C22.7839 10.719 20.2133 10.6903 17.6819 11.1495C16.0456 11.4417 14.7381 12.214 14.5058 14.0925C14.4189 14.5189 14.2008 14.9075 13.8821 15.204C12.2536 16.9886 12.6477 19.2897 14.806 20.3908C15.5758 20.7821 15.8185 21.3144 15.9777 22.0919C16.8494 26.3707 20.3882 29.4129 24.6029 29.4129ZM13.7281 11.0764C15.8159 9.17444 18.0838 8.98919 20.349 8.9057C22.2124 8.82743 24.081 8.84309 25.9469 8.83265C26.889 8.83265 27.7476 8.64741 28.4392 7.93253C29.5979 6.73497 29.9424 6.7141 31.2525 7.69771C32.453 8.60045 33.3064 9.80322 34.1624 11.0086C34.3659 11.293 34.4233 11.7548 34.8983 11.7913C35.4855 9.91019 35.2715 8.98919 33.6143 7.85947C32.1372 6.85499 30.8976 5.72788 30.2217 4.03982C29.9346 3.31972 29.2691 2.9962 28.5801 2.89705C24.2375 2.32828 20.0828 2.80052 16.4892 5.56872C14.8634 6.82368 13.8899 8.54044 13.7281 11.0764ZM34.4364 33.2299C33.6326 32.9012 33.3299 33.4413 32.9697 33.7517C30.8506 35.6198 28.7428 37.5001 26.6463 39.3925C24.7125 41.1536 24.7282 41.1536 22.7891 39.3273C20.8031 37.4435 18.8015 35.5755 16.8155 33.6943C16.3196 33.2247 15.8342 32.8177 15.0617 33.2325C15.1032 33.3966 15.16 33.5565 15.2313 33.71C16.7659 36.2825 18.3239 38.8446 19.8375 41.4302C20.1637 41.9859 20.597 42.0485 21.1424 42.0433C22.8805 42.0433 24.642 41.8633 26.3619 42.0824C28.5462 42.3642 29.7545 41.5058 30.7123 39.6117C31.8006 37.4174 33.1707 35.3693 34.4364 33.2299ZM20.6048 48.9547C20.6048 50.301 20.6335 51.6446 20.6048 52.9883C20.5865 53.6588 20.8162 53.9171 21.4947 53.9093C23.5825 53.8806 25.6703 53.8728 27.7424 53.9093C28.5567 53.9249 28.7863 53.5988 28.7863 52.8317C28.7533 50.2227 28.7533 47.6197 28.7863 45.0228C28.7863 44.2245 28.5253 43.9636 27.7424 43.9792C25.7042 44.0184 23.6634 44.0262 21.6252 43.9792C20.7953 43.961 20.5943 44.2949 20.6231 45.0542C20.657 46.3509 20.6204 47.6554 20.6204 48.9547H20.6048ZM28.9794 34.1561C28.5684 33.3387 28.3035 32.4557 28.1965 31.5471C28.1339 30.7487 27.8311 30.7644 27.2048 30.9522C25.6608 31.4253 24.0216 31.4971 22.442 31.1609C20.6909 30.8192 20.6883 30.8139 20.2473 32.5646C20.0881 33.1986 19.647 33.8013 20.396 34.4431C21.6774 35.5415 22.8883 36.7313 24.1018 37.908C24.5168 38.3097 24.8352 38.4063 25.3023 37.9706C26.3827 36.9687 27.5049 36.0112 28.6036 35.0276C28.8489 34.8345 29.136 34.6571 28.9951 34.1561H28.9794Z" fill="#1B7CF2" stroke="#1B7CF2" stroke-width="0.2"/>
<path d="M43.1869 16.6941V3.66453C43.1869 3.53408 43.1869 3.40362 43.1869 3.27317C43.213 2.60004 43.4061 2.02604 44.2125 2.05474C44.9302 2.08083 45.2199 2.62613 45.1129 3.23404C44.8728 4.62988 45.6609 5.32128 46.6579 6.07529C50.8909 9.26356 55.069 12.5249 59.2603 15.7705C59.7613 16.1567 60.466 16.5037 60.1867 17.3099C59.9075 18.1161 59.1742 17.9935 58.5217 17.9935H48.2289C45.1442 17.9935 45.1442 17.9935 45.1442 21.1452C45.1442 24.0117 45.1442 26.8816 45.1442 29.7551C45.1442 30.4621 45.1912 31.2944 44.2256 31.3205C43.1556 31.3596 43.1817 30.4778 43.1817 29.7264C43.1817 25.3832 43.1834 21.0391 43.1869 16.6941ZM56.0373 15.734C52.6263 13.1093 49.2519 10.495 45.8436 7.8912C45.1781 7.36939 45.1547 7.8912 45.1547 8.37126C45.1547 10.5446 45.1938 12.7206 45.1338 14.8939C45.1103 15.8384 45.4783 16.0706 46.3525 16.0575C49.2232 16.0184 52.0939 16.0575 54.9647 16.0367C55.2857 16.0341 55.6536 16.1567 56.0373 15.734Z" fill="#1B7CF2" stroke="#1B7CF2" stroke-width="0.2"/>
<path d="M24.7516 45.119C25.3179 45.119 25.8842 45.0929 26.4479 45.119C26.569 45.1141 26.6899 45.1337 26.8033 45.1768C26.9166 45.2198 27.0201 45.2854 27.1074 45.3695C27.1947 45.4536 27.2641 45.5546 27.3113 45.6662C27.3585 45.7779 27.3826 45.8979 27.3822 46.0191C27.3994 46.1397 27.3905 46.2625 27.356 46.3793C27.3215 46.4961 27.2622 46.6041 27.1822 46.696C27.1023 46.7878 27.0034 46.8613 26.8925 46.9116C26.7815 46.9618 26.661 46.9876 26.5392 46.9871C25.3257 47.0315 24.107 47.0262 22.8856 46.9871C22.7638 46.99 22.6427 46.9669 22.5305 46.9193C22.4183 46.8717 22.3176 46.8007 22.2351 46.711C22.1526 46.6214 22.0902 46.5151 22.052 46.3994C22.0139 46.2837 22.0009 46.1612 22.0139 46.04C22.0085 45.9187 22.0282 45.7976 22.0717 45.6843C22.1152 45.5709 22.1817 45.4678 22.267 45.3814C22.3522 45.2949 22.4544 45.227 22.5672 45.1818C22.6799 45.1367 22.8007 45.1153 22.9221 45.119C23.5354 45.0955 24.1435 45.1216 24.7516 45.119Z" fill="#1B7CF2" stroke="#1B7CF2" stroke-width="0.2"/>
<path d="M24.7491 49.8655C24.1411 49.8655 23.533 49.889 22.9223 49.8655C22.8011 49.8693 22.6805 49.8479 22.5681 49.8027C22.4556 49.7575 22.3537 49.6895 22.2688 49.6029C22.184 49.5164 22.118 49.4132 22.0751 49.2999C22.0321 49.1865 22.0131 49.0655 22.0193 48.9445C22.0063 48.8235 22.0192 48.7011 22.0574 48.5855C22.0956 48.4699 22.158 48.3638 22.2406 48.2743C22.3232 48.1849 22.4239 48.1141 22.5361 48.0668C22.6483 48.0195 22.7693 47.9967 22.891 48C24.0636 47.9687 25.2363 47.9687 26.4089 48C27.017 48.0131 27.398 48.3601 27.3771 48.9889C27.3562 49.5498 26.9857 49.8499 26.4402 49.8786C25.8948 49.9073 25.3154 49.8681 24.7491 49.8655Z" fill="#1B7CF2" stroke="#1B7CF2" stroke-width="0.2"/>
<path d="M24.6524 52.7219C24.0913 52.7219 23.5276 52.7219 22.9639 52.7219C22.8435 52.7302 22.7227 52.7135 22.609 52.6728C22.4954 52.6321 22.3914 52.5683 22.3037 52.4855C22.2159 52.4027 22.1462 52.3025 22.0991 52.1915C22.0519 52.0804 22.0283 51.9607 22.0296 51.8401C22.0105 51.7203 22.0179 51.5977 22.0513 51.4811C22.0847 51.3645 22.1433 51.2566 22.2229 51.1651C22.3026 51.0735 22.4013 51.0005 22.5122 50.9513C22.6231 50.902 22.7434 50.8777 22.8647 50.8799C24.0757 50.846 25.2918 50.8486 26.5027 50.8799C26.6239 50.8744 26.7448 50.8951 26.8572 50.9405C26.9696 50.986 27.0709 51.0552 27.1542 51.1434C27.2374 51.2315 27.3006 51.3366 27.3395 51.4515C27.3784 51.5663 27.3921 51.6882 27.3796 51.8088C27.3851 51.9292 27.3655 52.0496 27.322 52.1621C27.2785 52.2746 27.212 52.3768 27.1269 52.4622C27.0417 52.5476 26.9396 52.6143 26.8272 52.6581C26.7148 52.702 26.5945 52.7219 26.474 52.7167C25.8686 52.748 25.2605 52.7167 24.6472 52.7167L24.6524 52.7219Z" fill="#1B7CF2" stroke="#1B7CF2" stroke-width="0.2"/>
</g>
<defs>
<clipPath id="clip0_6969_36012">
<rect width="60" height="60" fill="white" transform="translate(0.25)"/>
</clipPath>
</defs>
</svg>
