<svg width="64" height="64" viewBox="0 0 64 64" fill="none" xmlns="http://www.w3.org/2000/svg">
<rect width="64" height="64" rx="16" fill="white"/>
<path d="M29.1875 14H20.1875C19.6053 14 19.1328 14.4725 19.1328 15.0547V20.7029C19.1328 21.2858 19.6053 21.7576 20.1875 21.7576H29.1875C29.7697 21.7576 30.2422 21.2858 30.2422 20.7029V15.0547C30.2422 14.4725 29.7697 14 29.1875 14ZM28.1328 19.6482L24.6588 21.2654L21.2422 19.6482V16.1094H28.1328V19.6482Z" fill="#525C74"/>
<path d="M30.2422 15.0547V20.7029C30.2422 21.2858 29.7697 21.7576 29.1875 21.7576H24.6587V21.3357L28.1328 19.6482V16.1094H24.6587V14H29.1875C29.7697 14 30.2422 14.4725 30.2422 15.0547Z" fill="#444E66"/>
<path d="M34.3203 23.5622L33.8984 46.4137C33.8984 48.4373 32.6173 48.6637 30.5938 48.6637L24.1672 49.9997H21.1958L20.2578 49.6481L19.0864 49.9997H17.6703C15.6467 49.9997 14 48.353 14 46.3294V26.2763L14.4219 25.2497L14 24.1669V23.3175C14 21.2939 15.6467 19.6465 17.6703 19.6465H19.13L20.1172 20.3278L21.2422 19.6465H24.1672L27.9922 21.1716L31.5078 20.3981C33.0388 25.0535 34.314 21.5986 34.3203 23.5622Z" fill="#68B9CF"/>
<path d="M35.3176 23.3181V46.3298C35.3176 48.3535 33.6707 50.0004 31.647 50.0004H24.6588V20.2803L25.7882 19.6475H31.6471C33.6708 19.6475 35.3176 21.2943 35.3176 23.3181Z" fill="#68B9CF"/>
<path d="M35.3173 24.1669H26.2766V19.6465H24.1672V24.1669H21.2329L21.2394 19.6465H19.13L19.1235 24.1669H14V26.2763H19.1205L19.0864 49.9997H21.1958L21.2299 26.2763H24.1672V49.9997H26.2766V26.2763H35.3173V24.1669Z" fill="#4AB7D3"/>
<path d="M35.3176 24.1651H25.7882V19.6475H24.6588V50.0004H25.7882V26.2827H35.3176V24.1651Z" fill="#42A8C3"/>
<path d="M40.1657 28.6826H33.999C32.0014 28.6826 30.3765 30.3075 30.3765 32.3052V34.2591C30.3765 34.8435 30.8508 35.3179 31.4353 35.3179H42.7294C43.3139 35.3179 43.7882 34.8436 43.7882 34.2591V32.3052C43.7882 30.3075 42.1633 28.6826 40.1657 28.6826ZM41.6706 33.2003L37.0823 34.2549L32.4941 33.2003V32.3052C32.4941 31.4751 33.1689 30.8002 33.999 30.8002H40.1657C40.9958 30.8002 41.6706 31.475 41.6706 32.3052V33.2003H41.6706Z" fill="#525C74"/>
<path d="M43.7883 32.3053V34.2592C43.7883 34.8436 43.314 35.318 42.7295 35.318H37.0824V34.5363L41.6706 33.2003V32.3053C41.6706 31.4751 40.9958 30.8003 40.1657 30.8003H37.0824V28.6826H40.1657C42.1634 28.6827 43.7883 30.3076 43.7883 32.3053Z" fill="#444E66"/>
<path d="M50.0001 36.2411V46.9592C50.0001 48.6357 48.6356 50.0002 46.9591 50.0002H27.2057C25.5293 50.0002 24.1648 48.6357 24.1648 46.9592V36.2411C24.1648 34.5647 25.5293 33.2002 27.2057 33.2002H46.9591C48.6356 33.2002 50.0001 34.5646 50.0001 36.2411Z" fill="#FFCAAF"/>
<path d="M50.0001 36.2411V46.9592C50.0001 48.6357 48.6356 50.0002 46.9591 50.0002H37.0824V33.2002H46.9591C48.6356 33.2002 50.0001 34.5646 50.0001 36.2411Z" fill="#FFBFAB"/>
</svg>
