<svg width="64" height="64" viewBox="0 0 64 64" fill="none" xmlns="http://www.w3.org/2000/svg">
<rect width="64" height="64" rx="16" fill="white"/>
<path d="M21.9414 40.3859L16.987 36.489C16.7164 36.2854 16.6278 35.926 16.7902 35.6908C17.5843 34.5408 19.114 34.148 20.617 34.7083L25.0977 37.25L21.9414 40.3859Z" fill="#42A8C3"/>
<path d="M23.604 42.0485L27.5111 47.0131C27.7147 47.2837 28.0741 47.3723 28.3093 47.2099L28.6047 47.0059C29.5774 46.3343 29.9095 45.0404 29.4357 43.7691L26.7501 38.9023L23.604 42.0485Z" fill="#42A8C3"/>
<path d="M22.2304 35.623L19.4272 38.408L21.9413 40.3855L25.0977 37.2495L22.2304 35.623Z" fill="#219FC0"/>
<path d="M23.2835 25.123C22.6613 24.5008 22.6121 23.5094 23.168 22.8273C23.963 21.8516 24.9591 20.7653 25.5566 20.1677C26.3741 19.3503 26.4455 19.4479 27.3189 18.9126C27.4474 18.8338 27.6134 18.8528 27.72 18.9594L29.4472 20.6865C29.5538 20.7932 29.5728 20.9591 29.494 21.0877C28.9586 21.9611 29.0563 22.0324 28.2389 22.8499C27.6413 23.4474 26.5549 24.4435 25.5793 25.2386C24.8971 25.7944 23.9056 25.7452 23.2835 25.123Z" fill="#FFBFAB"/>
<path d="M38.8762 40.7158C38.254 40.0936 38.2048 39.1022 38.7607 38.4201C39.5557 37.4444 40.5518 36.358 41.1493 35.7605C41.9668 34.9431 42.0381 35.0407 42.9116 34.5054C43.0402 34.4265 43.2061 34.4455 43.3127 34.5522L45.0399 36.2793C45.1465 36.386 45.1655 36.5519 45.0867 36.6805C44.5513 37.5539 44.649 37.6252 43.8316 38.4427C43.234 39.0403 42.1476 40.0364 41.172 40.8314C40.4898 41.3872 39.4984 41.338 38.8762 40.7158Z" fill="#FFBFAB"/>
<path d="M31.0835 31.0125L37.1959 24.9001L18.2609 18.9509C17.871 18.8513 17.4833 18.9461 17.2254 19.2041L15.6256 20.8038C15.0899 21.3396 15.3199 22.3217 16.0762 22.7278L31.0835 31.0125Z" fill="#42A8C3"/>
<path d="M32.9175 23.5566L27.4608 29.0134L31.0835 31.0133L37.1959 24.9008L32.9175 23.5566Z" fill="#219FC0"/>
<path d="M32.9868 32.9161L39.0992 26.8037L45.0485 45.7387C45.148 46.1286 45.0532 46.5163 44.7953 46.7742L43.1955 48.374C42.6598 48.9097 41.6777 48.6798 41.2716 47.9234L32.9868 32.9161Z" fill="#42A8C3"/>
<path d="M44.5241 24.2342L34.2553 34.5029C32.5323 36.226 30.7004 37.8331 28.7826 39.3044L23.8969 43.0523C22.7659 43.92 21.4207 44.0249 20.6977 43.302C19.9747 42.579 20.0797 41.2338 20.9474 40.1027L24.6953 35.2171C26.1665 33.2992 27.7736 31.4674 29.4967 29.7443L39.7655 19.4756C41.1693 18.0719 42.7815 16.9023 44.4847 16.0993C45.9514 15.4078 47.5105 14.9746 48.2678 15.7319C49.0251 16.4892 48.5919 18.0482 47.9004 19.515C47.0975 21.2183 45.9279 22.8305 44.5241 24.2342Z" fill="#E0F3FC"/>
<path d="M48.2677 15.7323C48.0012 15.4658 47.635 15.3471 47.2088 15.335C47.2394 16.1236 46.8974 17.1239 46.4445 18.0846C45.6416 19.7878 44.472 21.4 43.0681 22.8038L32.7995 33.0725C31.0764 34.7955 29.2446 36.4027 27.3267 37.8738L22.4411 41.6217C21.7217 42.1736 20.9158 42.4164 20.2383 42.3344C20.2893 42.7103 20.441 43.0456 20.6977 43.3022C21.4206 44.0252 22.7658 43.9202 23.8969 43.0525L28.7825 39.3046C30.7004 37.8334 32.5322 36.2263 34.2553 34.5032L44.524 24.2346C45.9278 22.8308 47.0974 21.2186 47.9004 19.5154C48.5918 18.0486 49.025 16.4896 48.2677 15.7323Z" fill="#C3D3DB"/>
<path d="M45.3749 22.2682L45.0243 22.6189C44.6986 22.9445 41.0558 19.3017 41.3814 18.976L41.7321 18.6254C41.9531 18.4044 42.2775 18.3347 42.5417 18.4516C43.858 19.0338 44.9664 20.1423 45.5488 21.4586C45.6655 21.7228 45.5959 22.0472 45.3749 22.2682Z" fill="#51C4F5"/>
<path d="M21.8071 42.681C21.6822 42.681 21.5572 42.6334 21.4619 42.538C21.2712 42.3473 21.2712 42.0381 21.4619 41.8475L25.7259 37.5834C25.9166 37.3928 26.2258 37.3928 26.4164 37.5834C26.6071 37.7741 26.6071 38.0833 26.4164 38.2739L22.1524 42.538C22.057 42.6333 21.9321 42.681 21.8071 42.681Z" fill="#42A8C3" fill-opacity="0.92"/>
</svg>
